<?xml version="1.0" encoding="UTF-8" standalone="no"?>
<!-- Created with Inkscape (http://www.inkscape.org/) -->

<svg
   version="1.1"
   id="svg53"
   width="768"
   height="296"
   viewBox="0 0 768 296"
   sodipodi:docname="evans-logo.svg"
   inkscape:version="1.1.2 (0a00cf5339, 2022-02-04)"
   xmlns:inkscape="http://www.inkscape.org/namespaces/inkscape"
   xmlns:sodipodi="http://sodipodi.sourceforge.net/DTD/sodipodi-0.dtd"
   xmlns="http://www.w3.org/2000/svg"
   xmlns:svg="http://www.w3.org/2000/svg">
  <defs
     id="defs57" />
  <sodipodi:namedview
     id="namedview55"
     pagecolor="#ffffff"
     bordercolor="#666666"
     borderopacity="1.0"
     inkscape:pageshadow="2"
     inkscape:pageopacity="0.0"
     inkscape:pagecheckerboard="0"
     showgrid="false"
     inkscape:zoom="1"
     inkscape:cx="121.5"
     inkscape:cy="203"
     inkscape:window-width="1920"
     inkscape:window-height="1031"
     inkscape:window-x="0"
     inkscape:window-y="25"
     inkscape:window-maximized="1"
     inkscape:current-layer="layer1" />
  <g
     inkscape:groupmode="layer"
     inkscape:label="Image"
     id="g59"
     style="display:inline" />
  <g
     inkscape:groupmode="layer"
     id="layer1"
     inkscape:label="SVG"
     style="display:inline">
    <g
       id="g359"
       style="display:inline;fill:#000000">
      <path
         style="fill:#000000;fill-opacity:1;stroke-width:1.33333"
         d="m 356,282.74536 c 0,-7.39819 0.58912,-13.61875 1.33333,-14.07869 0.73334,-0.45323 1.33334,0.1252 1.33334,1.28538 0,1.91871 0.28861,1.92032 3.19214,0.0179 9.82767,-6.43933 19.91166,8.53756 10.94272,16.25231 -3.91384,3.36654 -7.49681,3.90322 -11.55585,1.73089 -2.32373,-1.24363 -2.57901,-0.91368 -2.57901,3.33333 0,2.59247 -0.6,4.71358 -1.33334,4.71358 -0.79946,0 -1.33333,-5.30711 -1.33333,-13.25464 z m 14.89501,1.71465 c 4.87014,-4.40741 1.33736,-13.79334 -5.19169,-13.79334 -2.62235,0 -7.03665,5.01864 -7.03665,8 0,3.24044 4.49878,8 7.56168,8 1.22558,0 3.32558,-0.99299 4.66666,-2.20666 z m 370.43832,10.91856 c 0,-0.34178 0.96215,-2.63909 2.13812,-5.1051 2.05488,-4.30916 2.00212,-4.75204 -1.3558,-11.37858 C 739.67725,274.08295 737.82293,272 735.97753,272 c -2.3162,0 -2.6442,0.90965 -2.6442,7.33333 0,6.66667 0.26667,7.33334 2.93334,7.33334 2.13226,0 2.53304,0.40029 1.46754,1.46578 -2.60578,2.60579 -6.92205,0.0465 -7.65842,-4.54093 -0.79724,-4.96653 -1.21223,-12.32044 -0.93628,-16.59152 0.24785,-3.83623 4.19382,-4.01387 4.19382,-0.18879 0,2.28534 0.58639,2.66403 3.13474,2.02444 2.70416,-0.67869 3.64737,0.15514 6.86694,6.07056 l 3.73223,6.85732 3.29563,-6.54844 c 3.90514,-7.75956 4.03574,-7.9276 5.23152,-6.73182 C 756.66531,269.55419 743.97147,296 742.38652,296 c -0.57925,0 -1.05319,-0.27964 -1.05319,-0.62143 z m -559.4812,-9.16756 c -2.5937,-2.231 -3.6299,-4.38464 -3.6299,-7.54434 0,-4.97252 5.31406,-10.66667 9.95469,-10.66667 3.22453,0 10.48975,6.90083 10.48975,9.96365 0,1.19283 -0.87782,3.86627 -1.95068,5.94099 -3.25735,6.29901 -9.15776,7.21456 -14.86386,2.30637 z m 11.56319,-2.293 c 3.51061,-3.51061 2.88897,-7.59496 -1.67233,-10.9876 -3.4014,-2.52992 -3.76978,-2.55288 -7,-0.43636 -5.96156,3.90616 -3.53324,14.17262 3.35225,14.17262 1.41428,0 3.80832,-1.2369 5.32008,-2.74866 z m 7.92399,-4.65134 0.005,-10.6 4.89495,-0.25487 c 8.47756,-0.44139 9.76041,1.08797 9.76041,11.63511 0,5.30206 -0.57207,9.28642 -1.33333,9.28642 -0.7528,0 -1.33334,-3.79172 -1.33334,-8.7085 0,-6.83251 -0.46989,-8.88883 -2.18122,-9.54554 -4.13307,-1.586 -6.46343,1.47535 -6.89515,9.05803 -0.66861,11.74317 -2.92439,11.07003 -2.91765,-0.87065 z m 30.92736,8.46666 c -0.88,-0.88 -1.6,-4.73 -1.6,-8.55556 0,-4.26073 -0.64572,-7.25689 -1.66667,-7.73333 -1.33333,-0.62221 -1.33333,-0.93333 0,-1.55555 0.91667,-0.42778 1.66667,-1.89237 1.66667,-3.25465 0,-1.36227 0.6,-2.84768 1.33333,-3.30091 0.75621,-0.46736 1.33333,0.65283 1.33333,2.58798 0,2.52313 0.69471,3.41202 2.66667,3.41202 1.46667,0 2.66667,0.6 2.66667,1.33334 0,0.73333 -1.2,1.33333 -2.66667,1.33333 -2.31764,0 -2.66667,0.88889 -2.66667,6.79149 0,5.67016 0.4403,6.90663 2.66667,7.48884 1.46667,0.38355 2.66667,1.22738 2.66667,1.87518 0,1.73324 -4.54436,1.43346 -6.4,-0.42218 z m 8.33746,-0.0821 c -1.24172,-3.23589 -0.0132,-26.98453 1.39587,-26.98453 0.73333,0 1.52149,1.95185 1.75145,4.33745 0.36748,3.8122 0.79647,4.24249 3.54248,3.55329 1.7184,-0.43129 4.38024,-0.112 5.91522,0.70946 2.42214,1.29629 2.79085,2.72049 2.79085,10.78004 0,5.30206 -0.57207,9.28642 -1.33333,9.28642 -0.75071,0 -1.33334,-3.74782 -1.33334,-8.57681 0,-7.4728 -0.35149,-8.68837 -2.73065,-9.44349 -4.48373,-1.42308 -6.60268,1.60585 -6.60268,9.43821 0,6.82704 -1.92383,10.73599 -3.39587,6.89992 z m 21.49383,-1.43199 c -6.26024,-6.26024 -3.34673,-15.99456 5.2852,-17.65845 2.87912,-0.55499 4.96459,-0.0399 7.21429,1.7818 l 3.1645,2.56244 -7.50983,4.54752 c -4.1304,2.50113 -7.52684,5.01039 -7.54764,5.57611 -0.0208,0.56572 1.46219,1.71202 3.29552,2.54734 2.51964,1.14803 4.18908,1.12887 6.83897,-0.0785 3.93442,-1.79263 4.8365,-1.54172 3.31398,0.92176 -0.56947,0.92141 -3.19276,2.02539 -5.82955,2.45328 -3.96751,0.64384 -5.38581,0.18633 -8.22544,-2.65329 z m 9.10129,-14.43612 c -1.81933,-2.94373 -9.86592,2.35004 -9.86592,6.49071 0,1.1702 1.78811,0.58076 5.31147,-1.75088 2.92131,-1.93323 4.97081,-4.06615 4.55445,-4.73983 z m 20.07348,14.27755 c -5.97678,-5.97677 -3.16356,-15.36528 5.23583,-17.4734 3.63839,-0.91317 9.32345,1.52724 8.11453,3.48331 -0.49297,0.79764 -1.71422,0.77269 -3.28337,-0.0671 -3.34113,-1.78812 -8.85805,0.37851 -9.98215,3.92021 -2.04838,6.4539 3.08491,11.58986 10.05396,10.0592 4.57212,-1.00421 5.42002,1.30466 0.9218,2.51012 -5.33384,1.42942 -7.7246,0.90367 -11.0606,-2.43234 z m 18.35735,1.19717 c -3.51307,-2.46064 -3.76371,-5.52184 -0.79873,-9.75493 1.63096,-2.32852 3.11029,-2.95171 6,-2.5276 2.4364,0.3576 3.83532,-0.0303 3.83532,-1.06351 0,-2.14905 -3.06143,-3.24085 -6.53807,-2.33169 -1.5374,0.40204 -2.79527,0.10867 -2.79527,-0.65192 0,-0.7606 1.91536,-1.80359 4.25635,-2.31776 6.36272,-1.39748 9.32051,2.83211 8.80357,12.58896 L 322,288.62193 l -4.70325,0.35576 c -2.64307,0.19994 -6.00135,-0.55344 -7.66667,-1.71988 z M 318,282 c 0,-5.07573 -4.96444,-6.42632 -7.33564,-1.99568 -1.91748,3.58284 0.49633,6.97287 4.55229,6.39336 C 317.332,286.09544 318,285.04 318,282 Z m 7.92195,5.61073 c -0.39923,-1.04038 -0.54499,-5.65741 -0.32391,-10.26008 L 326,268.98217 l 4.66229,-0.36194 c 2.56427,-0.19907 5.77868,0.23553 7.14315,0.96577 1.69148,0.90525 2.9444,0.86416 3.93771,-0.1292 2.17637,-2.17637 5.56644,-1.76305 8.0502,0.98147 1.55153,1.71441 2.20665,4.8812 2.20665,10.66666 0,10.6841 -2.41912,10.71182 -2.93637,0.0336 C 348.34268,266.25555 340,267.28296 340,282.25484 c 0,3.89317 -0.6,7.07849 -1.33333,7.07849 -0.75088,0 -1.33334,-3.75154 -1.33334,-8.58797 0,-9.03644 -0.99558,-10.78877 -5.34526,-9.40824 -2.2538,0.71533 -2.65474,2.02532 -2.65474,8.67404 0,7.47039 -1.86589,11.62707 -3.41138,7.59957 z m 55.67166,0.11627 c -1.97126,-1.97132 -2.22117,-20.27224 -0.26028,-19.06033 0.73334,0.45322 1.33334,4.40746 1.33334,8.7872 0,6.14244 0.49872,8.15453 2.18122,8.80017 4.13307,1.586 6.46343,-1.47535 6.89515,-9.05803 0.66863,-11.74333 2.92445,-11.07002 2.91704,0.87066 l -0.007,10.6 -5.73312,0.32694 c -3.15322,0.17983 -6.45026,-0.39017 -7.32676,-1.26666 z m 18.04502,0.15056 c -1.29876,-0.75611 -2.02095,-1.92557 -1.60486,-2.59881 0.44111,-0.71372 1.76894,-0.59183 3.18475,0.29237 1.33553,0.83405 3.40772,1.1406 4.60485,0.68121 3.61642,-1.38774 2.45378,-4.76736 -2.32726,-6.76501 -2.47715,-1.03501 -4.9049,-2.53067 -5.395,-3.32367 -1.26626,-2.04884 1.41844,-6.49808 4.51378,-7.48049 3.11148,-0.98755 8.47908,1.54681 7.30375,3.44853 -0.53152,0.86002 -1.48259,0.78354 -2.68703,-0.21606 -1.02537,-0.85099 -2.77196,-1.19895 -3.8813,-0.77326 -3.51579,1.34914 -2.18431,4.75198 2.64969,6.77175 3.58004,1.49584 4.66667,2.73095 4.66667,5.30432 0,5.1038 -5.9479,7.61665 -11.02804,4.65912 z m 26.54118,-1.30761 C 418.80272,280.76707 423.17127,268.8 432.66667,268.8 c 9.30773,0 13.42469,10.56317 6.72726,17.2606 -3.99958,3.9996 -8.55377,4.17512 -13.21412,0.50929 z M 437.33333,284 c 4.28064,-4.28064 3.16032,-10.03805 -2.36181,-12.13756 -7.32063,-2.78331 -12.83596,6.39408 -7.43153,12.36591 2.87518,3.17705 6.47181,3.09318 9.79334,-0.22835 z m 9.33334,-3.22223 c 0,-5.54073 -0.58731,-8.82962 -1.66667,-9.33333 -1.33333,-0.62221 -1.33333,-0.93333 0,-1.55555 0.91667,-0.42778 1.66667,-2.20666 1.66667,-3.95309 0,-2.96821 3.28914,-5.9358 6.57901,-5.9358 2.45793,0 1.54301,2.44824 -1.24568,3.33333 -1.46667,0.46551 -2.66667,2.00594 -2.66667,3.42319 0,1.68792 0.91988,2.57681 2.66667,2.57681 1.46667,0 2.66667,0.6 2.66667,1.33334 0,0.73333 -1.2,1.33333 -2.66667,1.33333 -2.39316,0 -2.66667,0.88889 -2.66667,8.66667 0,4.88889 -0.5812,8.66666 -1.33333,8.66666 -0.75036,0 -1.33333,-3.74074 -1.33333,-8.55556 z m 20,-5.44444 v -14 h 4.66666 c 2.8889,0 5.68254,1.01587 7.33334,2.66667 3.04989,3.04989 3.25085,4.41708 1.20981,8.2308 -1.05359,1.96864 -1.05359,3.12543 0,4.17901 0.80127,0.80127 1.45685,3.10283 1.45685,5.11459 0,4.53197 -4.32092,7.80893 -10.29668,7.80893 h -4.36998 z m 11.80073,6.7548 C 479.01157,279.22008 475.45611,276 471.74516,276 c -1.87565,0 -2.41183,1.05623 -2.41183,4.75115 0,4.55484 0.1786,4.73388 4.32242,4.33333 3.0213,-0.29204 4.46968,-1.19399 4.81165,-2.99635 z M 477.08856,269 c 0.37908,-3.29456 0.007,-3.66667 -3.66667,-3.66667 -3.67364,0 -4.08856,0.41492 -4.08856,4.08856 0,3.67364 0.37211,4.04575 3.66667,3.66667 2.87996,-0.33137 3.75719,-1.2086 4.08856,-4.08856 z m 8.24477,9.66667 C 485.33333,272.44444 485.88889,268 486.66667,268 487.4,268 488,268.62111 488,269.38024 c 0,0.91691 0.93352,0.88065 2.78087,-0.108 1.52946,-0.81855 3.17946,-1.05751 3.66666,-0.53104 0.48719,0.52648 0.12507,1.22867 -0.80468,1.56041 C 489.578,271.75196 488,275.05 488,282.09524 c 0,3.98095 -0.6,7.23809 -1.33333,7.23809 -0.77778,0 -1.33334,-4.44444 -1.33334,-10.66666 z M 497,287.88031 c -1.50395,-0.86766 -2.33333,-2.9647 -2.33333,-5.89966 0,-5.25982 3.61973,-8.03316 8.79085,-6.73529 2.25513,0.566 3.20915,0.24575 3.20915,-1.07731 0,-2.46606 -2.57648,-3.37258 -7.41784,-2.6099 -3.74003,0.58917 -3.79951,0.52326 -1.32732,-1.47067 3.02202,-2.43741 5.26446,-2.61696 8.83281,-0.70724 2.16168,1.15691 2.57901,2.84759 2.57901,10.44809 v 9.06784 l -5,0.16515 c -2.75,0.0908 -6.05,-0.44063 -7.33333,-1.18101 z m 8.83449,-4.18863 c 1.11547,-1.77131 0.95067,-2.81128 -0.70841,-4.47037 -3.01765,-3.01764 -7.79275,-1.328 -7.79275,2.75742 0,4.93412 5.74382,6.09148 8.50116,1.71295 z m 7.49884,-4.94632 C 513.33333,272.47068 513.88808,268 514.66667,268 515.4,268 516,268.58713 516,269.30475 c 0,0.81225 1.19457,0.76046 3.16468,-0.13718 6.69125,-3.04874 11.02932,3.46492 9.93797,14.922 -0.70377,7.3884 -3.04628,4.6612 -3.76932,-4.38834 -0.53202,-6.65884 -1.15084,-8.43594 -3.06405,-8.79936 C 517.9844,270.08792 516,273.20552 516,280.75124 c 0,3.90025 -0.6,7.4622 -1.33333,7.91543 -0.84676,0.52332 -1.33334,-3.09727 -1.33334,-9.92131 z m 22.17982,7.82453 c -4.46175,-3.5096 -4.91844,-11.55148 -0.86438,-15.22036 2.80218,-2.53593 8.4615,-3.19946 12.35123,-1.44813 2.014,0.90679 2.33333,0.30113 2.33333,-4.42541 0,-3.0118 0.6,-5.47599 1.33334,-5.47599 0.80808,0 1.33333,5.77777 1.33333,14.66667 0,8.88889 -0.52525,14.66666 -1.33333,14.66666 -0.73334,0 -1.33334,-0.6211 -1.33334,-1.38024 0,-0.95144 -0.80124,-0.95144 -2.57901,0 -3.91221,2.09375 -7.36035,1.66947 -11.24117,-1.3832 z M 546.66667,284 c 1.46666,-1.46667 2.66666,-3.86667 2.66666,-5.33333 0,-2.98136 -4.4143,-8 -7.03665,-8 -6.38763,0 -9.8534,8.66654 -5.42336,13.56168 2.87519,3.17705 6.47181,3.09318 9.79335,-0.22835 z m 11.27273,2.0606 c -5.10216,-5.10215 -3.99103,-12.93117 2.29671,-16.18269 7.12416,-3.68406 14.43056,0.82145 14.43056,8.89864 0,9.31677 -10.23683,13.7745 -16.72727,7.28405 z m 11.62228,-1.60059 c 5.9684,-5.40132 0.23909,-15.42586 -7.19987,-12.59757 -5.52213,2.09951 -6.64245,7.85692 -2.36181,12.13756 3.24447,3.24447 6.32133,3.39249 9.56168,0.46001 z m 7.77165,-5.04798 c 0,-5.45672 0.6,-10.29214 1.33334,-10.74536 C 579.4,268.21344 580,268.46517 580,269.22605 c 0,0.92576 1.08471,0.88922 3.27872,-0.1104 2.62557,-1.19629 3.9536,-1.05168 6.66667,0.72599 3.05116,1.99921 3.38794,3.07833 3.38794,10.8558 0,4.8684 -0.58168,8.63593 -1.33333,8.63593 -0.73563,0 -1.33333,-3.46666 -1.33333,-7.73333 0,-10.13943 -3.57938,-13.83015 -8.57143,-8.83809 -1.39015,1.39014 -2.09524,4.53102 -2.09524,9.33333 0,3.98095 -0.6,7.23809 -1.33333,7.23809 -0.76943,0 -1.33334,-4.19598 -1.33334,-9.9213 z m 32.04511,6.34248 c -2.396,-3.04603 -2.75779,-5.06475 -2.43011,-13.55967 0.2511,-6.50957 0.96466,-10.17261 2.05167,-10.53228 1.24547,-0.41208 1.66667,2.29957 1.66667,10.72973 0,12.94635 1.55176,15.64614 7.74633,13.47716 3.42833,-1.20038 3.61649,-1.75142 4.25367,-12.45713 0.43285,-7.27267 1.2512,-11.39409 2.33333,-11.7512 1.23968,-0.40909 1.66667,2.16513 1.66667,10.04796 0,8.70275 -0.49419,11.22621 -2.76344,14.11111 -3.84618,4.88961 -10.65116,4.85884 -14.52479,-0.0657 z m 21.28823,-6.2638 c 0,-5.5 0.6,-10.37082 1.33333,-10.82404 0.73333,-0.45323 1.33333,-0.2015 1.33333,0.55938 0,0.93927 1.01606,0.9205 3.16468,-0.0585 6.69126,-3.04875 11.02932,3.46492 9.93798,14.922 -0.70378,7.3884 -3.04628,4.6612 -3.76932,-4.38835 -0.53203,-6.65884 -1.15084,-8.43593 -3.06406,-8.79936 -4.28488,-0.81389 -6.26928,2.30371 -6.26928,9.84943 0,3.90025 -0.6,7.4622 -1.33333,7.91543 -0.84361,0.52138 -1.33333,-2.84882 -1.33333,-9.17596 z m 20,-0.0787 c 0,-5.45672 0.6,-10.29213 1.33333,-10.74536 0.84676,-0.52332 1.33333,3.09727 1.33333,9.92131 0,6.27468 -0.55474,10.74536 -1.33333,10.74536 -0.76943,0 -1.33333,-4.19599 -1.33333,-9.92131 z m 9.64361,0.20553 c -2.37671,-5.28966 -4.31881,-10.10297 -4.31579,-10.69625 0.0139,-2.706 3.2543,1.38509 6.00743,7.58436 l 3.03223,6.82767 3.45262,-7.76408 c 1.89896,-4.27024 4.02434,-7.41075 4.72308,-6.97891 1.12138,0.69305 -5.30025,17.14208 -7.6884,19.69388 -0.48944,0.52299 -2.83446,-3.37701 -5.21117,-8.66667 z m 17.86953,6.95234 c -2.6861,-2.11291 -3.51314,-3.94756 -3.51314,-7.79336 0,-7.72423 6.9816,-12.3984 13.84678,-9.27042 4.97486,2.2667 4.33075,3.96126 -3.20657,8.43611 -7.28141,4.32291 -7.63473,4.90587 -4.53332,7.4798 1.665,1.38184 2.97487,1.42095 6.2454,0.18645 4.93777,-1.8638 6.68284,-0.8171 3.05744,1.83386 -3.63469,2.65774 -7.79669,2.35252 -11.89659,-0.87246 z m 5.46143,-11.1874 c 3.93987,-2.67722 4.41773,-3.44356 2.58563,-4.1466 -2.73335,-1.04888 -8.89354,2.73408 -8.89354,5.4615 0,2.65238 0.6773,2.5112 6.30791,-1.3149 z m 11.02543,4.02952 c 0,-5.45672 0.6,-10.29214 1.33333,-10.74536 0.73333,-0.45323 1.33333,-0.16752 1.33333,0.63489 0,1.04697 0.78523,1.03869 2.78087,-0.0293 4.17276,-2.2332 4.48499,-0.65927 0.63328,3.19242 -2.76107,2.76107 -3.41415,4.70099 -3.41415,10.14143 0,3.7 -0.6,6.72727 -1.33333,6.72727 -0.76943,0 -1.33333,-4.19599 -1.33333,-9.92131 z m 11.25484,7.96481 c -2.40419,-1.81743 -2.21271,-1.93589 2.69373,-1.66667 4.12788,0.22651 5.38872,-0.2272 5.7708,-2.07656 0.343,-1.66024 -0.74423,-2.79626 -3.64339,-3.80692 -5.88889,-2.05288 -7.53145,-5.70456 -4.10654,-9.12946 3.22672,-3.22672 5.314,-3.38416 8.77572,-0.66198 2.44244,1.92067 2.32541,2.01451 -2.0785,1.66667 -3.89076,-0.30731 -4.66666,0.0717 -4.66666,2.27981 0,1.59451 1.06117,2.84543 2.66666,3.14348 4.00531,0.7436 6,2.84616 6,6.32447 0,5.22217 -6.66469,7.51569 -11.41182,3.92716 z m 16.30072,1.0676 c -1.41878,-1.41877 -1.02664,-18.86859 0.44444,-19.77777 0.84676,-0.52332 1.33333,3.09726 1.33333,9.9213 0,10.7761 -0.13107,11.50312 -1.77777,9.85647 z m -71.55556,-25.77777 c 0,-0.73334 0.6,-1.33334 1.33333,-1.33334 0.73333,0 1.33333,0.6 1.33333,1.33334 0,0.73333 -0.6,1.33333 -1.33333,1.33333 -0.73333,0 -1.33333,-0.6 -1.33333,-1.33333 z m 70.66666,0.0787 c 0,-0.69005 0.6,-1.62546 1.33334,-2.07869 C 723.4,260.21341 724,260.77797 724,261.92128 c 0,1.14328 -0.6,2.07869 -1.33333,2.07869 -0.73334,0 -1.33334,-0.56458 -1.33334,-1.25464 z M 114,259.85447 C 66.597212,253.01849 23.836876,215.02012 10.634318,168 -1.65946,124.21644 16.867113,69.593604 54.026604,40.064319 67.070415,29.698881 77.760159,23.825677 93.333333,18.468252 105.55563,14.263583 106.756,14.108771 127.54959,14.055356 c 11.85228,-0.03044 22.03689,0.429259 22.63248,1.021567 0.59558,0.592306 -4.89143,12.702606 -12.19336,26.911777 -7.30195,14.209172 -13.46094,25.650179 -13.68666,25.424461 -0.22572,-0.225716 0.57169,-4.728306 1.77202,-10.005753 1.20033,-5.277448 1.94914,-9.82864 1.66402,-10.113759 -0.28512,-0.28512 -2.57577,5.30717 -5.09034,12.42731 -2.51457,7.12014 -4.70294,12.045708 -4.86305,10.945708 -0.16011,-1.1 -0.72777,-6.2 -1.26148,-11.333334 L 115.55283,50 113.76575,62 c -0.9829,6.6 -1.93933,12.471124 -2.1254,13.046943 -0.18607,0.575817 -3.53852,-8.616934 -7.44988,-20.428335 -3.91137,-11.811403 -7.291361,-21.282527 -7.511094,-21.046943 -0.219733,0.235584 1.691233,10.224618 4.246594,22.197852 2.55536,11.973234 4.27755,22.138078 3.82708,22.588542 -0.45046,0.450465 -4.21084,-2.445818 -8.356397,-6.436183 C 92.251097,67.931511 89.766672,66.166667 90.875707,68 c 6.025922,9.961392 9.297813,16 8.669244,16 -0.389642,0 -5.246655,-1.747511 -10.793362,-3.883356 -5.546708,-2.135845 -10.084922,-3.674167 -10.084922,-3.418492 0,0.255675 3.607678,2.995507 8.017064,6.088513 4.409385,3.093008 7.814349,5.826366 7.566586,6.074128 -0.247762,0.247763 -8.62781,-0.193873 -18.622328,-0.981414 -9.994517,-0.787542 -19.249481,-1.210322 -20.566586,-0.939511 -1.317106,0.270811 6.282785,1.970127 16.888645,3.776257 17.164101,2.922971 18.702728,3.393994 14,4.285852 -2.90586,0.551088 -9.783381,1.85225 -15.283381,2.891471 l -10,1.889493 12.876905,-0.224804 c 7.082299,-0.12364 12.660601,0.122107 12.396229,0.546103 -0.26437,0.424 -7.113158,2.76982 -15.219526,5.21294 -8.106368,2.44311 -14.51251,4.66836 -14.23587,4.945 0.27664,0.27664 6.102728,-0.71918 12.946862,-2.21293 6.844134,-1.49375 13.057816,-2.71592 13.808181,-2.71592 0.750365,0 -5.438427,3.26689 -13.752869,7.25974 -14.996506,7.2018 -20.42602,10.32779 -12.791872,7.3648 14.234953,-5.52492 25.110601,-9.28249 23.97196,-8.28239 -0.733334,0.64411 -7.033334,4.4908 -14,8.5482 -33.630368,19.58641 -52.787868,31.00827 -54,32.19523 -1.638685,1.60465 -4.4949705,3.10326 29.333333,-15.39039 15.4,-8.41905 30.7,-16.62856 34,-18.24335 6.878935,-3.36607 6.319003,-2.81389 -9.869609,9.73299 C 60.558676,132.83648 56,136.62189 56,136.93019 c 0,0.73269 1.026899,0.0873 16,-10.05432 L 84.666667,118.29636 72,131.37703 59.333333,144.45771 72,133.82508 C 89.294664,119.30764 89.935735,119.15419 79.265972,132.0859 65.110273,149.24255 65.015128,149.70257 78.456447,136 l 12.42516,-12.66667 -7.707259,11.33334 c -4.238992,6.23333 -9.876339,14.33333 -12.527439,18 -5.22159,7.22184 -8.242398,12.32214 -5.079118,8.57554 0.971048,-1.15012 8.318269,-10.29738 16.327156,-20.32728 8.008888,-10.02988 14.771569,-18.02619 15.02818,-17.76958 0.256612,0.25661 -1.958796,5.7412 -4.923127,12.18798 -2.964331,6.44678 -5.188196,11.92292 -4.94192,12.16919 0.246275,0.24628 3.670139,-5.22985 7.608587,-12.16919 3.938448,-6.93933 7.380963,-12.39681 7.650033,-12.12774 0.26908,0.26908 -3.463763,15.03624 -8.295195,32.81592 -4.831432,17.77968 -8.569794,32.54132 -8.307473,32.80364 0.262321,0.26232 5.504773,-15.11603 11.649892,-34.17411 C 103.50904,135.59297 109.01607,120 109.60177,120 c 0.58569,0 1.11647,4.65 1.1795,10.33333 0.13355,12.04138 1.67875,9.00112 3.21868,-6.33287 0.52874,-5.26488 1.43875,-9.0688 2.02226,-8.45315 0.5835,0.61565 2.64449,4.71936 4.57996,9.11936 l 3.51904,8 -0.79799,-7.18696 c -0.4389,-3.95282 -1.13853,-9.05282 -1.55473,-11.33333 -0.67536,-3.70055 0.98095,-2.42824 15.40406,11.83278 8.88844,8.78853 16.16078,16.39417 16.16078,16.90141 0,0.50726 -12.88992,9.21663 -28.64426,19.35419 C 108.93473,172.37231 96.231835,181.26667 96.460419,182 c 0.228582,0.73333 2.943768,3.26703 6.033741,5.63044 7.19004,5.49939 20.8075,9.70289 31.433,9.70289 16.73339,0 39.991,-8.34485 57.63676,-20.68012 4.71011,-3.2926 8.76935,-5.98654 9.02052,-5.98654 0.25116,0 8.71572,12.12757 18.81012,26.95017 l 18.35345,26.95017 -3.621,2.7165 c -1.99156,1.49406 -9.12729,5.8751 -15.85717,9.73562 C 185.24388,255.96408 146.24607,264.50469 114,259.85447 Z m 268,-7.21895 c -3.66667,-1.01815 -7.04829,-1.87764 -7.51473,-1.91001 -0.46643,-0.0324 -4.48768,-2.48928 -8.9361,-5.45983 -9.53857,-6.36961 -16.87482,-15.80952 -20.87765,-26.86427 l -2.88707,-7.9733 -4.2544,19.70368 c -2.33992,10.83702 -4.43162,19.8809 -4.64824,20.09752 -0.21661,0.2166 -18.39545,0.79758 -40.39742,1.29105 l -40.0036,0.89721 -8.23567,-33.87545 c -4.52961,-18.63149 -12.54228,-51.57545 -17.80591,-73.20879 -5.26362,-21.63333 -9.97334,-39.81093 -10.46604,-40.39465 -0.4927,-0.58373 -13.9471,7.3859 -29.89869,17.71028 -15.95157,10.32439 -29.53296,18.90199 -30.18087,19.06132 -1.30837,0.32179 -28.26572,-33.78262 -27.3929,-34.65543 0.30219,-0.30219 5.11316,1.22266 10.69102,3.38856 5.57788,2.16589 10.1416,3.78911 10.1416,3.60714 0,-0.18196 -3.70792,-2.9318 -8.23982,-6.11075 -4.53191,-3.17895 -7.59732,-5.99409 -6.81202,-6.25585 0.78531,-0.26177 12.08759,0.45789 25.11619,1.59925 13.02861,1.14135 23.88519,1.87837 24.12573,1.63783 0.24055,-0.24055 -9.30381,-2.13451 -21.20969,-4.2088 -11.90588,-2.074287 -22.11743,-4.183491 -22.69235,-4.687121 -0.5749,-0.503628 5.1251,-1.765306 12.66667,-2.803732 L 166,91.333333 152.66667,90.928816 139.33333,90.524297 154.66667,85.387055 c 17.49106,-5.860164 17.65416,-6.431923 0.76996,-2.699346 -6.54319,1.446499 -12.05855,2.468148 -12.25636,2.270332 -0.19782,-0.197816 5.91945,-3.280546 13.59393,-6.850514 20.46941,-9.521839 17.55233,-9.367703 -7.7742,0.410784 -2.01667,0.778628 -3.66667,1.18418 -3.66667,0.901228 0,-0.282954 5.55,-3.967723 12.33334,-8.188378 17.16089,-10.677668 17.32862,-11.418978 0.66666,-2.946258 C 150.45,72.293632 144,75.450187 144,75.299469 c 0,-0.150717 6.3,-5.207325 14,-11.236905 7.7,-6.029581 14,-11.207953 14,-11.507495 0,-0.299541 -6.75,4.031412 -15,9.624342 L 142,72.348373 154.66667,59.315568 167.33333,46.282761 154.47159,57.14138 C 147.39763,63.113621 141.21776,68 140.73855,68 c -0.4792,0 3.21176,-4.95 8.20214,-11 14.05402,-17.038119 14.00218,-17.190305 -0.7789,-2.286473 -7.61103,7.674226 -13.23786,13.05314 -12.50408,11.95314 4.7732,-7.155444 14.93152,-24 14.47349,-24 -0.30456,0 -4.89468,5.7 -10.20028,12.666666 C 134.62532,62.3 130.10001,68 129.87467,68 c -0.22534,0 2.60464,-6.75 6.28885,-15 3.68421,-8.25 8.85513,-19.95 11.49096,-26 5.58856,-12.827475 5.67331,-12.858164 21.15415,-7.661417 29.83422,10.015022 56.34074,31.052697 71.49786,56.746384 l 4.97316,8.43028 -3.63982,2.411948 -3.63983,2.411946 6,-0.71439 c 14.75223,-1.756479 28.69963,-3.03623 29.06865,-2.66721 0.2215,0.22149 4.2586,24.282509 8.97136,53.468929 4.71276,29.18641 8.74496,53.59513 8.96046,54.24158 0.21548,0.64647 3.95466,-22.88306 8.30928,-52.28782 4.35462,-29.40477 8.31054,-54.099181 8.79093,-54.876467 0.92635,-1.498852 57.73411,1.553246 59.37065,3.189794 0.46098,0.460972 -0.78113,8.118871 -2.76022,17.017553 -1.9791,8.89868 -3.3453,16.43248 -3.036,16.74178 0.30929,0.30929 2.18492,-6.76707 4.16805,-15.72525 1.98313,-8.958187 3.7548,-16.436707 3.93703,-16.618936 0.99329,-0.993297 17.4581,-4.609479 27.40277,-6.018495 17.15276,-2.430297 45.68227,-2.108745 55.87491,0.629759 23.84392,6.40626 38.0178,19.408112 43.54861,39.947602 1.828,6.78858 1.88733,6.30732 1.97244,-16.0009 0.0483,-12.650003 0.53775,-23.010775 1.08775,-23.023942 0.55,-0.0132 11.8,-1.202395 25,-2.642728 13.2,-1.440333 25.65,-2.629561 27.66666,-2.642728 L 556,81.333333 V 91.901017 102.4687 l 7.41193,-7.770637 c 12.23432,-12.826408 28.19571,-17.343859 45.56143,-12.894967 14.21432,3.64154 25.43247,13.050876 30.62983,25.691064 1.31824,3.20605 2.69681,5.81595 3.06348,5.79978 0.36666,-0.0162 1.76794,-2.41784 3.11397,-5.33705 3.51917,-7.6323 13.57799,-17.100139 22.80213,-21.462467 13.91568,-6.581075 25.14819,-8.306942 47.97547,-7.371392 11.05964,0.453266 24.00843,1.589584 28.77509,2.525152 l 8.66667,1.70103 0.66667,24.419657 0.66666,24.41966 -8,-1.09426 c -20.24601,-2.76932 -39.26392,-0.67295 -41.26777,4.54901 -1.79696,4.68281 2.94075,8.1782 16.94111,12.49881 29.23353,9.0217 38.69025,17.74755 42.41506,39.13699 4.97436,28.56487 -9.47686,48.82884 -41.43122,58.09617 -14.25887,4.13534 -48.78775,5.14198 -66.65718,1.94331 -19.8218,-3.54815 -20.61198,-3.56347 -46,-0.89123 -13.2,1.38938 -24.1849,2.3767 -24.41089,2.19406 -0.226,-0.18264 -0.826,-24.08118 -1.33333,-53.10784 -0.91872,-52.56276 -0.9347,-52.78804 -3.95948,-55.81134 -4.60307,-4.60081 -14.12188,-4.28178 -18.33346,0.61446 l -3.1396,3.65001 0.80011,50.01665 c 0.44007,27.50918 0.55484,50.06991 0.25505,50.13498 -7.07672,1.53598 -59.42568,5.89945 -59.99365,5.00066 -0.46993,-0.74361 -11.35993,-0.14968 -27.29267,1.48852 -36.28732,3.73107 -32.59208,4.42388 -32.59208,-6.11064 v -8.83648 l -5.84752,5.39006 c -7.35136,6.77625 -11.85541,9.10597 -22.4197,11.59658 -10.34719,2.43944 -22.25535,2.43503 -31.06611,-0.012 z m 224.66667,-19.19313 c 0,-0.67336 0.33393,-2.09451 0.74208,-3.15811 0.46365,-1.20827 -0.28674,-2.20287 -2,-2.65089 -2.20388,-0.57632 -2.74208,-1.78838 -2.74208,-6.17523 0,-3.96281 0.54793,-5.45816 2,-5.45816 1.24444,0 2,-1.25925 2,-3.33333 0,-2.07408 -0.75556,-3.33334 -2,-3.33334 -1.24444,0 -2,-1.25925 -2,-3.33333 0,-3.56204 -0.35334,-3.73821 -5,-2.49295 -1.70227,0.45619 -3,1.84218 -3,3.20402 0,1.32002 -0.5207,2.60004 -1.1571,2.84449 -0.63638,0.24444 -1.57682,1.79444 -2.08984,3.44444 -0.69393,2.23184 -0.39765,3 1.15708,3 1.62816,0 2.08986,1.52325 2.08986,6.89501 0,8.08291 2.57162,11.77166 8.20665,11.77166 2.08633,0 3.79335,-0.55094 3.79335,-1.22428 z m 12,-8.10906 c 0.5812,-7.55556 1.00854,-8.66666 3.33333,-8.66666 2.36436,0 2.71136,1.0203 3.06092,9 0.39387,8.99121 0.39809,9 4.33333,9 h 3.93908 v -10.0606 c 0,-8.98314 -0.36097,-10.42159 -3.3705,-13.43112 -2.68551,-2.68551 -4.17588,-3.19362 -7.33334,-2.50012 -3.81892,0.83877 -3.96282,0.69706 -3.96282,-3.90222 0,-4.41401 -0.30055,-4.77261 -4,-4.77261 h -4 v 17.42189 17.4219 l 3.66666,-0.4219 c 3.49999,-0.40272 3.69698,-0.81585 4.33334,-9.08856 z m 39.2473,7.56111 c 2.01384,-1.47255 2.1602,-2.26449 0.86552,-4.68361 -1.25052,-2.33662 -2.05622,-2.64482 -4.08116,-1.56111 -2.94682,1.57709 -8.03476,1.79919 -8.02478,0.35028 0.004,-0.55 3.30042,-3.1 7.32588,-5.66667 4.02544,-2.56666 7.1345,-5.23016 6.90904,-5.91886 C 659.95401,212.49899 653.00885,208.8 648.48925,208.8 642.02037,208.8 636,215.22257 636,222.1236 c 0,7.10559 5.91413,12.54307 13.6426,12.54307 3.21624,0 6.93836,-0.7975 8.27137,-1.77223 z M 644,219.41099 c 0,-1.73068 3.75559,-4.74432 5.91235,-4.74432 1.89668,0 0.4406,2.56553 -2.57902,4.54405 C 644.47217,221.08543 644,221.11379 644,219.41099 Z m 40,4.6797 c 0,-8.78314 -0.41847,-10.72277 -2.77316,-12.85374 -3.40513,-3.08159 -12.78073,-3.42818 -14.60712,-0.53998 -2.38112,3.76546 -1.50108,5.65494 2.29577,4.92912 4.01563,-0.76762 7.08451,0.0447 7.08451,1.8753 0,0.66885 -1.50437,0.8385 -3.34305,0.37704 -5.23463,-1.31382 -9.99028,2.52157 -9.99028,8.05706 0,6.84763 2.66388,8.64256 12.71212,8.56544 L 684,234.4348 v -10.34407 z m -13.38081,3.18543 c -1.49275,-1.79864 -1.47118,-2.34191 0.1332,-3.35607 2.6645,-1.68428 4.58093,-0.81413 4.58093,2.07995 0,3.26076 -2.5044,3.93871 -4.71415,1.27612 z m 31.89957,4.41833 c 0.86516,-2.33874 0.50079,-3.26882 -1.70964,-4.36398 -1.95737,-0.96979 -2.93459,-2.89852 -3.22295,-6.36112 -0.35498,-4.2629 -0.0232,-4.96935 2.33334,-4.96935 3.7031,0 3.77122,-5.31519 0.0805,-6.28033 -1.72569,-0.45128 -2.66667,-1.8187 -2.66667,-3.87518 -4e-5,-1.7478 -0.63948,-3.17782 -1.42102,-3.17782 -2.91939,0 -6.7616,2.93433 -6.09995,4.65857 0.37724,0.98308 -0.17623,2.11823 -1.22992,2.52257 C 686.43143,210.67324 685.92709,216 688,216 c 0.73333,0 1.33333,2.43944 1.33333,5.42099 0,5.47286 1.83598,10.42445 4.53294,12.22526 3.06005,2.04326 7.54922,1.0306 8.65249,-1.9518 z M 714.39148,226 c 0.28921,-5.91033 1.04677,-8.52241 2.9002,-10 3.19109,-2.544 4.18692,-7.52077 1.37499,-6.87164 -1.1,0.25393 -4.4,0.55393 -7.33334,0.66667 L 706,210 l -0.38453,12.42163 -0.38454,12.42164 4.38454,-0.42164 c 4.3727,-0.4205 4.38558,-0.4432 4.77601,-8.42163 z m 29.79648,6.34537 c 1.98873,-1.98873 -1.59773,-7.29294 -4.18521,-6.1897 -4.03586,1.72078 -8.00275,2.12004 -8.00275,0.80542 0,-0.74237 3.02844,-3.2931 6.72985,-5.6683 7.88986,-5.06291 8.10367,-7.5673 0.94475,-11.06548 -9.3402,-4.56404 -18.60793,1.42764 -18.60793,12.03022 0,3.93904 0.9074,5.79604 4.32374,8.84855 3.83115,3.42312 5.07054,3.79152 10.8785,3.23344 3.60509,-0.3464 7.16866,-1.24376 7.91905,-1.99415 z M 728.84024,219.3618 c 0.99208,-2.58531 5.41605,-5.10449 6.33967,-3.61005 0.37129,0.60076 -1.08478,2.13186 -3.23571,3.40245 -3.40399,2.01079 -3.80623,2.03769 -3.10396,0.2076 z M 430.26071,208.05879 c 6.0284,-3.67576 8.21337,-11.25184 5.12317,-17.76394 -6.69332,-14.10514 -28.76708,-9.53773 -28.68756,5.93592 0.0625,12.18026 12.63607,18.49143 23.56439,11.82802 z M 693.1424,194.53343 c 2.77712,-0.96811 4.49919,-2.63068 5.06664,-4.89162 1.2074,-4.81066 -2.6712,-7.55433 -16.69444,-11.80938 -17.87929,-5.42511 -26.20964,-10.34583 -33.33837,-19.69288 L 645.01911,154 l 0.8143,9.33333 c 0.44787,5.13334 0.81856,13.94803 0.82378,19.5882 l 0.009,10.25487 5.66667,1.26901 c 7.97637,1.78626 35.76558,1.84619 40.80906,0.088 z M 368.86745,150.90847 c 18.74063,-9.5457 46.24515,-9.03452 60.51234,1.12461 l 4.29106,3.05551 -0.57648,-9.05347 c -0.51486,-8.08573 -1.01729,-9.44732 -4.7004,-12.73818 -4.41912,-3.94849 -13.97214,-6.63027 -23.61828,-6.63027 -8.1274,0 -26.67849,3.41251 -35.98442,6.6194 -4.33147,1.49266 -8.13422,2.71393 -8.45054,2.71393 -0.31632,0 -0.15384,-2.55 0.36106,-5.66667 1.82309,-11.03508 -0.39399,-4.10564 -3.94607,12.33334 -1.98071,9.16666 -3.94632,17.86666 -4.36803,19.33333 -0.55213,1.92029 0.92855,1.10715 5.29024,-2.90528 3.33134,-3.06457 8.36662,-6.74839 11.18952,-8.18625 z"
         id="path363" />
      <path
         style="fill:#000000;fill-opacity:1;stroke-width:1.33333"
         d="m 356,282.74536 c 0,-8.05247 0.53281,-13.41203 1.33333,-13.41203 0.73334,0 1.33334,0.72 1.33334,1.6 0,1.24444 0.35556,1.24444 1.6,0 2.65856,-2.65856 10.00288,-1.91476 13.01472,1.31808 7.62786,8.18756 -1.83486,19.88404 -12.28139,15.18052 -1.94165,-0.87421 -2.33333,-0.36837 -2.33333,3.01339 0,2.23519 -0.6,4.43479 -1.33334,4.88801 C 356.4782,295.86184 356,291.34717 356,282.74536 Z m 16.76128,0.63069 c 4.81249,-7.34478 -3.34739,-15.68976 -10.65795,-10.89969 -3.99389,2.61689 -4.67533,8.76116 -1.34142,12.09507 3.27301,3.27301 9.47649,2.65502 11.99937,-1.19538 z m 370.79684,6.71566 c 2.26329,-4.74616 2.24243,-4.93842 -1.32511,-12.21248 -2.97213,-6.06007 -4.15937,-7.31439 -6.59546,-6.96815 -2.58004,0.36671 -3.02398,1.3454 -3.37448,7.43923 -0.35955,6.25093 -0.0684,7.15922 2.66666,8.32005 l 3.07027,1.30307 -3.33333,-0.32004 c -3.05234,-0.29308 -3.36816,-0.93484 -3.74651,-7.61298 -0.22724,-4.01109 -1.05071,-8.06109 -1.82992,-9 -0.98517,-1.18705 -0.98911,-1.70708 -0.0129,-1.70708 0.77214,0 1.66388,-1.35 1.9817,-3 l 0.57782,-3 0.18158,3 c 0.14526,2.40011 0.97694,3 4.1591,3 3.45828,0 4.43999,0.91258 7.5198,6.9903 l 3.54226,6.99029 3.42264,-6.99029 c 1.88244,-3.84466 3.86321,-6.9903 4.40169,-6.9903 1.43031,0 -10.45675,24.53095 -12.1626,25.09956 -0.79348,0.2645 -0.40792,-1.68904 0.8568,-4.34118 z m -559.13763,-2.11344 c -5.9444,-2.3697 -7.6853,-11.38012 -3.08716,-15.97827 3.40474,-3.40473 10.80784,-3.52729 13.79335,-0.22835 2.93067,3.23835 2.85751,11.24352 -0.12667,13.86399 -3.24336,2.84805 -7.14462,3.71192 -10.5795,2.34263 z m 9.14119,-3.51826 c 3.20001,-2.89597 3.0994,-7.79893 -0.22835,-11.12668 -3.47042,-3.47042 -7.23028,-3.38137 -10.61472,0.25142 -3.2572,3.49618 -3.42557,6.1459 -0.64301,10.11857 2.48108,3.54223 8.00592,3.9062 11.48608,0.75669 z m 69.95147,2.10988 c -4.33794,-3.41221 -4.9199,-11.55017 -1.07483,-15.0299 4.00445,-3.62399 15.36351,-2.20075 12.99692,1.62845 -0.49852,0.80663 -3.57539,3.03072 -6.83748,4.94244 -3.26211,1.91171 -5.93109,3.89883 -5.93109,4.41581 0,2.04219 3.37809,4.13998 6.66666,4.13998 1.90667,0 4.18667,-0.72 5.06667,-1.6 1.24444,-1.24444 1.6,-1.23711 1.6,0.0329 0,1.46309 -5.17444,4.23367 -7.90699,4.23367 -0.58669,0 -2.64764,-1.24355 -4.57986,-2.76344 z m 8.64437,-13.90322 c 0.28003,-0.73334 -0.89033,-1.53155 -2.60081,-1.77382 -3.70504,-0.52476 -8.22338,3.16903 -8.22338,6.72271 0,2.39883 0.27818,2.36971 5.15752,-0.53999 2.83663,-1.69156 5.38663,-3.67557 5.66667,-4.4089 z m 21.66125,15.10721 C 290.97992,286.39928 288,281.45383 288,278.11708 c 0,-0.9666 1.24355,-3.33837 2.76344,-5.2706 2.13453,-2.71363 3.93727,-3.51315 7.92131,-3.51315 2.83682,0 5.56834,0.66416 6.07004,1.47591 0.63528,1.02792 -0.36908,1.19451 -3.30884,0.54883 -5.82634,-1.27968 -10.77928,2.04889 -10.77928,7.24409 0,5.43311 3.41292,8.4248 8.88257,7.78624 5.0222,-0.58631 6.03099,0.87709 1.45076,2.10455 -3.66893,0.98324 -3.66469,0.98366 -7.18123,-0.71907 z M 311,287.95959 c -2.30911,-0.92902 -3,-2.28082 -3,-5.86971 0,-5.41083 3.33488,-7.9756 8.63931,-6.64427 3.7349,0.9374 4.4616,-0.87209 1.37801,-3.43124 -1.20915,-1.0035 -3.41999,-1.29049 -5.66667,-0.73557 -2.7558,0.68065 -3.30678,0.52572 -2.18686,-0.61491 0.82342,-0.83864 3.52342,-1.3311 6,-1.09434 l 4.50288,0.43045 0.39425,9 c 0.31505,7.19203 0.003,9 -1.55761,9 -1.07354,0 -2.75095,0.26248 -3.72759,0.58329 -0.97665,0.32082 -3.12572,0.0401 -4.77572,-0.6237 z m 7.75943,-3.40468 C 321.09807,281.737 318.76476,278 314.66667,278 c -4.0981,0 -6.4314,3.737 -4.09276,6.55491 0.96393,1.16146 2.80568,2.11176 4.09276,2.11176 1.28708,0 3.12882,-0.9503 4.09276,-2.11176 z M 384,288.36111 c -3.30959,-1.25923 -3.96916,-3.318 -3.74664,-11.69444 0.18045,-6.79287 0.28073,-7.09464 0.66455,-2 0.80809,10.72658 1.41248,12 5.69548,12 4.81081,0 5.53138,-1.12483 6.7412,-10.52327 l 0.96244,-7.47673 0.17481,9.38094 c 0.15057,8.07983 -0.1488,9.39386 -2.15851,9.47394 -1.28333,0.0512 -3.23333,0.43217 -4.33333,0.84674 -1.1,0.41458 -2.9,0.41134 -4,-0.007 z m 17,0.0493 c -4.22149,-1.09628 -2.43256,-2.92552 2.13603,-2.18415 3.2692,0.53052 4.68008,0.17615 5.25408,-1.31968 0.90236,-2.35152 -0.90996,-4.15637 -6.18898,-6.16345 -3.00498,-1.14249 -3.63117,-2.10892 -3.28964,-5.07712 0.36622,-3.18259 1.08118,-3.72059 5.42184,-4.07984 2.94528,-0.24376 5,0.17763 5,1.02541 0,0.81263 -1.3061,1.13214 -3,0.73388 -1.65,-0.38793 -3.83742,-0.15992 -4.86096,0.5067 -2.80388,1.82616 -0.83057,5.1174 3.65948,6.10358 2.1883,0.48063 4.34244,1.82174 4.787,2.98023 0.95426,2.48676 -0.27665,7.06403 -1.89965,7.06403 -0.62393,0 -1.93351,0.22868 -2.91015,0.50818 -0.97665,0.2795 -2.82572,0.23551 -4.10905,-0.0977 z m 27.42049,-0.41972 c -9.40274,-3.78848 -6.01877,-18.65739 4.24618,-18.65739 3.24429,0 5.23228,0.96511 7.23656,3.51315 3.76186,4.78243 3.47368,7.98173 -1.134,12.58941 -4.09819,4.09819 -5.59871,4.46863 -10.34874,2.5548 z m 9.48427,-3.41927 c 4.84207,-4.84206 0.54547,-14.64646 -5.99437,-13.67857 -1.63691,0.24227 -4.14759,2.01556 -5.57931,3.94064 -2.22212,2.98787 -2.35884,3.96364 -0.93416,6.66667 0.91792,1.74158 2.32913,3.60732 3.13601,4.14609 2.48912,1.66201 7.17206,1.12495 9.37183,-1.07483 z m 8.60837,-4.82606 c -0.25005,-15.87078 0.60434,-18.48778 5.98346,-18.32751 2.78473,0.0829 2.78174,0.10667 -0.16326,1.29036 -1.68249,0.67628 -3,2.35511 -3,3.82275 0,1.65373 1.10418,2.82957 3,3.19473 l 3,0.57783 -3,0.18157 c -2.7818,0.16837 -3,0.80619 -3,8.76955 0,4.72338 -0.6,8.9588 -1.33333,9.41202 -0.83759,0.51766 -1.39043,-2.79937 -1.48687,-8.9213 z m 39.01544,-0.41206 c -0.0927,-6.4056 0.3035,-9.94401 0.99184,-8.85765 0.79907,1.26108 1.42251,1.36204 2.05828,0.33333 0.50162,-0.81162 2.22662,-1.43765 3.83334,-1.39116 l 2.9213,0.0845 -2.86356,1.15538 c -3.91232,1.57854 -4.70912,3.20178 -5.82436,11.86552 -0.96062,7.46271 -0.96272,7.45674 -1.11684,-3.18993 z m 12.04748,7.8866 c -6.34608,-4.44497 -0.36598,-14.8538 6.44088,-11.21086 2.57871,1.38008 2.81884,1.22426 2.42274,-1.57191 -0.35782,-2.526 -1.24639,-3.10143 -4.773,-3.09093 -2.38334,0.007 -4.33334,-0.44292 -4.33334,-1 0,-1.80952 8.96084,-1.06828 10.57331,0.87461 0.91891,1.10723 1.39979,5.04257 1.16325,9.51967 -0.3925,7.4294 -0.5119,7.64393 -4.49384,8.0747 -2.24984,0.24339 -5.39984,-0.47448 -7,-1.59528 z M 506,282 c 0,-3.22785 -0.62903,-4.08879 -3.25863,-4.45996 -4.26229,-0.60163 -7.18813,3.13383 -5.26669,6.72405 0.93949,1.75548 2.49776,2.43227 4.94833,2.14915 C 505.41672,286.06739 506,285.34775 506,282 Z m 31.75383,5.99069 c -5.94712,-2.39614 -7.68419,-11.39366 -3.08716,-15.99069 2.9859,-2.98591 10.53146,-3.60187 13.06666,-1.06667 1.24444,1.24444 1.6,0.35556 1.6,-4 0,-3.08 0.6,-5.6 1.33334,-5.6 1.69284,0 1.80236,26.21942 0.11386,27.26295 -0.67069,0.41452 -1.44937,0.0639 -1.7304,-0.77917 -0.38398,-1.15196 -1.21876,-1.15403 -3.35956,-0.008 -3.28757,1.75946 -3.98182,1.77537 -7.93676,0.18189 z m 9.48426,-3.41926 c 4.58064,-4.58063 0.99444,-13.90476 -5.34797,-13.90476 -2.98847,0 -8.55679,5.56377 -8.55679,8.5498 0,6.18221 9.44146,9.81826 13.90476,5.35496 z m 13.16559,3.19522 c -3.33603,-1.6451 -6.02276,-8.05056 -4.81141,-11.47089 2.5314,-7.14761 11.26841,-9.43508 16.40773,-4.29576 7.49933,7.49933 -2.04539,20.47656 -11.59632,15.76665 z M 570.66667,284 c 1.46666,-1.46667 2.66666,-3.30611 2.66666,-4.08765 0,-2.00423 -2.78532,-7.05835 -4.53293,-8.22527 -4.52095,-3.01871 -11.46707,1.06881 -11.46707,6.74792 0,7.38476 8.12316,10.77517 13.33334,5.565 z m 40.29668,3.25773 c -2.72956,-1.91185 -2.9452,-3.04268 -2.7334,-14.33333 l 0.22993,-12.25773 0.77007,11.71912 c 0.80598,12.26604 1.84774,14.21901 7.6068,14.26046 4.65877,0.0335 6.44837,-3.70198 7.271,-15.17705 l 0.7744,-10.80253 0.2256,12.25773 c 0.20774,11.28813 -0.009,12.42191 -2.73776,14.33333 -1.62983,1.14158 -4.19634,2.0756 -5.70332,2.0756 -1.50699,0 -4.0735,-0.93402 -5.70332,-2.0756 z m 69.45714,0.73296 c -5.94712,-2.39614 -7.68418,-11.39366 -3.08716,-15.99069 3.11774,-3.11773 10.90722,-3.58997 13.2214,-0.80153 1.25382,1.51074 0.13462,2.74914 -5.89037,6.5178 -6.84083,4.27896 -7.26568,4.82526 -5.28941,6.80153 2.46712,2.46712 6.32137,2.76201 10.04604,0.76863 1.79581,-0.9611 2.57901,-0.95107 2.57901,0.0329 0,0.77728 -1.53905,1.99839 -3.42013,2.71357 -3.981,1.51358 -4.3019,1.51191 -8.15938,-0.0423 z m 2.27267,-11.34074 c 5.93739,-3.74811 6.80604,-5.99348 2.30684,-5.96287 -3.74817,0.0255 -5.51476,1.18285 -7.46707,4.89193 -2.88482,5.48072 -2.08746,5.6462 5.16023,1.07094 z m 24.97351,11.76046 c -1.28334,-0.33326 -2.33334,-1.17338 -2.33334,-1.86692 0,-0.69353 1.50779,-0.88253 3.35066,-0.42 3.60438,0.90464 7.83302,-1.54158 6.47189,-3.74394 -0.44811,-0.72507 -2.84151,-2.16514 -5.31865,-3.20015 -4.44419,-1.85691 -5.27963,-3.60644 -3.69458,-7.73701 0.90436,-2.35674 9.85735,-3.03822 9.85735,-0.75032 0,0.75612 -1.37441,1.01378 -3.09893,0.58096 -1.94344,-0.48778 -3.7263,-0.0219 -4.78146,1.24952 -2.20392,2.65556 -0.98845,4.40808 3.7843,5.45634 2.13032,0.4679 4.23705,1.79859 4.68161,2.95708 0.95425,2.48676 -0.27665,7.06403 -1.89965,7.06403 -0.62394,0 -1.93351,0.22868 -2.91015,0.50819 -0.97665,0.27949 -2.82572,0.2355 -4.10905,-0.0977 z M 201.53132,279.33333 201.33724,270 l 5.47643,-0.37621 c 7.81993,-0.53722 9.23228,1.18054 8.93969,10.8728 l -0.24664,8.17008 -0.49987,-7.29292 c -0.56897,-8.30115 -2.01264,-10.70708 -6.42476,-10.70708 -4.03026,0 -5.04976,1.8008 -6.0387,10.66666 l -0.818,7.33334 z m 29.96045,6.33334 c -0.66601,-2.259 -1.18562,-12.53819 -0.94358,-18.66667 0.14401,-3.64656 2.78514,-4.05537 2.78514,-0.43109 0,1.41289 1.05,2.84329 2.33334,3.17865 2.22222,0.58073 2.22222,0.61713 0,0.76444 -1.94254,0.1288 -2.33334,1.47901 -2.33334,8.06193 0,7.14003 0.2911,7.96334 3,8.4851 2.63556,0.50762 2.56548,0.59988 -0.57681,0.7594 -2.36076,0.11986 -3.81071,-0.61172 -4.26475,-2.15176 z m 10.26172,-11 c 0.0155,-7.7 0.2609,-11.79319 0.54542,-9.09596 0.5034,4.77228 0.64036,4.88406 5.0979,4.1607 6.90975,-1.12129 8.63923,1.09326 8.40716,10.76518 l -0.19602,8.17008 -0.818,-7.33334 c -0.9931,-8.90308 -2.0055,-10.66666 -6.12328,-10.66666 -4.11779,0 -5.13019,1.76358 -6.12328,10.66666 -0.60855,5.45568 -0.8108,3.74872 -0.7899,-6.66666 z m 85.11116,4.66666 -0.19408,-9.33333 5.23707,-0.3586 c 2.8804,-0.19724 5.63293,0.28189 6.11676,1.06473 0.61807,1.00006 1.41519,0.97892 2.68035,-0.0711 0.99036,-0.82194 3.48694,-1.30107 5.54796,-1.06475 3.69441,0.42361 3.74922,0.5614 3.88472,9.76301 l 0.13744,9.33334 -0.80411,-8.65471 c -0.6404,-6.89276 -1.29216,-8.7474 -3.20148,-9.11009 -4.27995,-0.81302 -6.258,2.32646 -6.46531,10.26138 l -0.19602,7.50342 -0.818,-7.33334 c -0.95634,-8.57352 -2.02711,-10.66666 -5.45662,-10.66666 -3.4295,0 -4.50028,2.09314 -5.45661,10.66666 l -0.818,7.33334 z m 139.80202,-4 v -12.66666 h 5.06666 c 2.78667,0 5.78667,0.72 6.66667,1.6 1.94347,1.94346 2.11843,8.58888 0.25644,9.73965 -0.83293,0.51479 -0.57957,1.59436 0.66667,2.8406 2.35465,2.35465 2.54826,4.98972 0.62998,8.57407 C 478.90487,287.3796 477.14079,288 472.61976,288 h -5.95309 z m 11.19202,8.33334 c 2.14246,-3.42167 -0.58594,-7 -5.33734,-7 -3.01839,0 -3.94988,0.6719 -4.29346,3.09697 -0.24133,1.70333 -0.0948,3.99351 0.32575,5.08929 1.02156,2.66212 7.40497,1.84832 9.30505,-1.18626 z m -0.2258,-12.10571 c 2.51434,-3.95268 -0.78313,-8.05433 -5.89284,-7.32997 -3.18258,0.45116 -4.71302,4.64365 -3.1664,8.67408 0.89055,2.32073 7.33635,1.36437 9.05924,-1.34411 z m 35.94272,7.77237 -0.23837,-9.33333 5.47643,-0.37621 c 7.81993,-0.53722 9.23228,1.18054 8.93969,10.8728 l -0.24664,8.17008 -0.49987,-7.29292 c -0.54005,-7.87923 -2.02702,-10.70708 -5.63013,-10.70708 -3.82457,0 -6.50928,4.31945 -7.05012,11.34298 -0.43836,5.69288 -0.54713,5.30527 -0.75099,-2.67632 z m 65.3377,-0.0841 -0.24664,-9.41752 6.00945,-0.31107 c 5.38285,-0.27864 6.14751,0.052 7.33333,3.17099 1.68768,4.43892 1.72615,15.30845 0.0541,15.30845 -0.69835,0 -1.44835,-3.75 -1.66667,-8.33333 -0.37393,-7.84983 -0.59699,-8.35659 -3.84443,-8.73408 -4.70972,-0.54747 -6.3052,1.86937 -6.89272,10.44116 -0.47041,6.8632 -0.51438,6.73801 -0.7465,-2.1246 z m 51.95046,0.0841 -0.19496,-9.33333 6.21174,-0.40103 c 7.65154,-0.49398 8.48096,0.62744 8.18572,11.0677 l -0.22622,8 -0.49986,-7.29292 c -0.53515,-7.80768 -2.03458,-10.7193 -5.50344,-10.68667 -4.43102,0.0417 -6.13096,2.54799 -6.95316,10.25137 l -0.82487,7.72822 z m 21.58451,-0.66666 c 0,-5.5 0.23535,-7.75 0.52301,-5 0.28766,2.75 0.28766,7.25 0,10 -0.28766,2.75 -0.52301,0.5 -0.52301,-5 z m 7.82633,0 c -4.7856,-10.83472 -3.79461,-12.6729 1.26316,-2.34304 l 3.42264,6.99029 3.60944,-7.12287 c 1.98519,-3.91758 3.9395,-6.79281 4.34291,-6.3894 0.72429,0.7243 -6.93572,18.19835 -7.97752,18.19835 -0.296,0 -2.39329,-4.2 -4.66063,-9.33333 z m 35.96196,0 c -0.0893,-5.74612 0.30232,-9.14923 0.92074,-8 0.59192,1.1 0.66188,5.6 0.15548,10 l -0.92074,8 z m 26.87838,0 c 0,-5.5 0.23534,-7.75 0.52301,-5 0.28765,2.75 0.28765,7.25 0,10 -0.28767,2.75 -0.52301,0.5 -0.52301,-5 z m -23.78162,-8 c 0.45323,-0.73334 1.83864,-1.32415 3.0787,-1.31292 1.94302,0.0176 1.97822,0.19905 0.25464,1.31292 -2.61116,1.68746 -4.37624,1.68746 -3.33334,0 z m -48.66666,-8 c 0,-0.73334 0.6,-1.33334 1.33333,-1.33334 0.73333,0 1.33333,0.6 1.33333,1.33334 0,0.73333 -0.6,1.33333 -1.33333,1.33333 -0.73333,0 -1.33333,-0.6 -1.33333,-1.33333 z m 71.33333,0 c -0.45323,-0.73334 -0.18864,-1.33334 0.58797,-1.33334 0.77662,0 1.41203,0.6 1.41203,1.33334 C 724,263.4 723.73541,264 723.41203,264 723.08864,264 722.45323,263.4 722,262.66667 Z M 105.96303,257.96621 C 67.921763,249.60711 35.442132,223.09249 17.806547,186 13.065993,176.02931 7.6680832,157.24711 9.1220748,155.78208 9.6049337,155.29556 22.9,147.88243 38.666667,139.30845 54.433333,130.73447 69.883333,122.25724 73,120.47016 c 3.116667,-1.78708 5.666667,-3.00143 5.666667,-2.69855 0,0.30287 -6.012679,5.21548 -13.361508,10.91692 -7.34883,5.70143 -13.103336,10.6244 -12.787794,10.93995 0.315544,0.31553 7.378223,-4.02492 15.694842,-9.64548 l 15.121126,-10.21919 -13.044142,12.45143 c -7.174279,6.84828 -13.024279,12.94216 -13,13.54193 0.02428,0.59978 5.294142,-3.30746 11.710809,-8.68277 17.483228,-14.64587 17.757949,-14.71538 6.880759,-1.74107 -14.00616,16.70655 -14.120738,17.81059 -0.484311,4.66667 6.466903,-6.23333 10.257916,-9.23333 8.424477,-6.66667 -17.283484,24.19547 -22.741085,32.19095 -22.284648,32.64739 0.420111,0.42011 22.692683,-26.85587 33.73555,-41.31405 1.12021,-1.46667 -0.661706,3.57931 -3.959812,11.21328 -3.298107,7.63397 -5.745,14.1315 -5.43754,14.43897 0.307458,0.30745 4.276432,-5.93852 8.819938,-13.87995 4.543507,-7.94143 7.955957,-13.49622 7.583217,-12.34396 -0.37273,1.15225 -4.629435,16.75226 -9.459339,34.66667 -4.829904,17.9144 -9.348006,34.52165 -10.040227,36.90499 C 82.005789,198.32563 81.998709,200 82.759744,200 83.441884,200 84,199.34444 84,198.54319 84,197.74195 89.55,179.97487 96.333333,159.06077 109.29514,119.09748 109.95615,118.03078 110.62352,136 c 0.23908,6.43749 0.41384,6.8604 1.43052,3.46196 0.63699,-2.12925 1.56294,-7.97925 2.05768,-13 0.49473,-5.02074 1.31157,-9.12863 1.81521,-9.12863 0.50363,0 2.31257,3.45 4.01985,7.66667 5.56306,13.73972 6.41511,12.83367 3.44814,-3.66667 -0.98896,-5.5 -1.7074,-10.02004 -1.59652,-10.04453 0.11088,-0.0245 7.20987,7.17826 15.77552,16.00613 l 15.57392,16.05066 -28.57392,18.4516 C 108.85827,171.94557 96,180.74607 96,181.35383 c 0,2.87492 11.91313,10.92401 19.75135,13.345 22.09286,6.82378 50.89269,0.0959 76.2042,-17.80203 4.74222,-3.35325 8.70373,-5.97681 8.80337,-5.83013 18.97717,27.9356 27.45115,40.37804 31.48787,46.23402 l 5.03261,7.3007 -8.97304,5.86274 c -19.88123,12.98987 -46.69716,23.84651 -68.13485,27.58494 -13.69246,2.38776 -43.17004,2.3427 -54.20848,-0.0828 z m 280.41093,-4.67336 c -13.65967,-2.30132 -28.96665,-12.38626 -35.94995,-23.68548 -1.60982,-2.60476 -4.23758,-8.35552 -5.83946,-12.77948 l -2.91251,-8.04356 -1.54704,7.2745 c -0.85088,4.00098 -2.87708,13.42264 -4.50269,20.93701 L 332.66667,250.65836 299,250.94029 c -18.51667,0.15506 -36.50649,0.30694 -39.9774,0.33748 l -6.31073,0.0556 -17.7109,-72.66666 c -9.74098,-39.96667 -17.9798,-73.4101 -18.30848,-74.31874 -0.37682,-1.04174 -11.71,5.53535 -30.67722,17.80322 -23.54188,15.22672 -30.47331,19.12857 -31.8909,17.95208 -4.2649,-3.53956 -26.42456,-33.83294 -24.04855,-32.8756 9.8123,3.95354 19.25751,7.33378 19.25751,6.89183 0,-0.28837 -3.75,-3.32247 -8.33333,-6.74246 l -8.33333,-6.21816 8,0.77923 c 47.94014,4.66955 53.50062,4.42634 24.4219,-1.06818 -12.23461,-2.311774 -22.58725,-4.555863 -23.00586,-4.986869 -0.41862,-0.431005 5.39153,-1.631005 12.91142,-2.666666 l 13.67254,-1.883022 -14,-0.4014 -14,-0.401401 16.44697,-5.373845 c 9.04584,-2.955615 16.19976,-5.62106 15.89761,-5.923211 -0.30214,-0.302151 -6.13113,0.668872 -12.95328,2.157828 -6.82216,1.488957 -12.63157,2.479543 -12.90981,2.201301 C 146.86992,83.314364 153.55325,79.897692 162,76 170.44675,72.102308 177.15069,68.706244 176.89764,68.453191 176.38945,67.945007 165.84155,71.4987 155,75.830723 c -3.85,1.538368 -7,2.545742 -7,2.238612 0,-0.307131 6.60393,-4.594442 14.67541,-9.527356 8.07147,-4.932916 14.40208,-9.242264 14.06802,-9.576331 -0.33407,-0.334067 -6.938,2.773211 -14.67542,6.90506 C 154.33061,70.002559 148,73.149436 148,72.863771 c 0,-0.285666 6.01268,-5.184199 13.36151,-10.88563 7.34882,-5.70143 13.07826,-10.649484 12.73206,-10.995676 -0.34618,-0.34619 -5.30886,2.610883 -11.02817,6.571278 -17.97525,12.447154 -18.75903,12.412341 -5.33984,-0.237179 7.18239,-6.77044 12.76445,-12.604325 12.40459,-12.964191 -0.35987,-0.359865 -5.93636,3.804044 -12.39223,9.253131 -16.51055,13.935777 -17.11959,13.928772 -5.25093,-0.0604 5.76488,-6.794861 10.19881,-12.637081 9.85318,-12.982712 -0.34562,-0.345629 -6.18913,5.188187 -12.98554,12.297372 -11.86468,12.410667 -13.09699,12.670887 -5.39971,1.140231 12.4636,-18.670723 11.42491,-19.759659 -1.97485,-2.07036 -5.01648,6.622364 -9.30541,11.856134 -9.53094,11.630601 -0.53171,-0.531712 19.40895,-45.207941 20.83323,-46.675996 2.96343,-3.054511 34.57597,9.386029 48.90844,19.247027 14.16669,9.746941 32.80241,30.107744 39.4082,43.056149 l 2.68151,5.256187 -3.14026,2.550281 -3.14025,2.550283 7.33333,-0.715338 c 20.41044,-1.990956 28,-2.455429 28,-1.713572 0,1.391239 15.98304,101.312333 16.88364,105.551403 0.4674,2.2 1.04799,3.4 1.29019,2.66667 0.24221,-0.73334 4.07003,-25.60118 8.50625,-55.26187 4.43623,-29.66069 8.19804,-54.042284 8.35956,-54.181316 0.38259,-0.329296 58.86915,3.579852 59.25287,3.960367 0.16088,0.159532 -3.28899,16.458429 -7.66639,36.219769 -4.37738,19.76134 -7.95901,36.58681 -7.95917,37.38993 -1.5e-4,0.80312 2.43104,-0.85264 5.40267,-3.67948 17.70368,-16.84111 49.28742,-20.61223 70.16781,-8.37807 3.06392,1.7952 5.91392,3.264 6.33333,3.264 1.87095,0 0.50375,-11.69273 -1.96302,-16.78841 -4.23026,-8.73854 -9.18723,-10.5564 -28.60774,-10.49125 -13.32234,0.0447 -18.19932,0.67177 -29.14182,3.74706 -7.228,2.03137 -13.33228,3.50293 -13.56506,3.27016 -0.23277,-0.23277 1.78922,-10.01895 4.49332,-21.74706 l 4.91656,-21.323827 8.84964,-2.215861 c 13.1281,-3.287147 30.43578,-5.109492 48.56742,-5.113716 26.47721,-0.0061 43.75088,5.833893 56.0053,18.934864 7.0303,7.51595 12.0463,17.65625 13.78575,27.86913 0.67375,3.95574 1.62024,31.94225 2.10333,62.19225 l 0.87835,55 -3.11307,0.003 c -2.9751,0.003 -35.00192,3.10486 -47.93853,4.64365 l -6.1588,0.73259 -0.94005,-9.53998 -0.94004,-9.53997 -3.94862,4.79035 c -5.51726,6.6934 -18.27616,12.6332 -30.52034,14.20849 -11.29231,1.45283 -11.64064,1.45273 -20.29271,-0.005 z m 46.59539,-47.32886 c 4.33393,-4.33394 4.64857,-5.18263 4.01276,-10.8236 -0.91226,-8.09352 -5.30115,-12.53668 -13.27088,-13.43498 -7.6894,-0.8667 -13.3076,2.01275 -16.32218,8.36548 -5.04537,10.63235 1.81431,20.59578 14.17992,20.59578 5.8865,0 7.26726,-0.56956 11.40038,-4.70268 z m 67.84292,-17.63066 c -0.46795,-33.55 -1.2091,-70.02785 -1.647,-81.06189 l -0.79622,-20.061885 23.1488,-2.338904 c 12.73186,-1.286398 25.39882,-2.685232 28.14882,-3.108523 l 5,-0.769616 v 10.091721 c 0,5.550447 0.48165,10.389397 1.07033,10.753227 0.58869,0.36383 3.49672,-2.155349 6.46231,-5.598173 2.96557,-3.442824 8.63392,-8.055092 12.59632,-10.249484 C 581.57135,82.237389 582.87265,82 596.66667,82 c 12.83932,0 15.48744,0.403937 21.2544,3.242095 8.59636,4.230625 17.08242,13.21174 20.96865,22.191925 1.71065,3.95292 3.43975,7.19738 3.84243,7.20989 0.40268,0.0125 1.4784,-2.04095 2.39048,-4.56326 2.49728,-6.90611 12.41882,-17.111705 21.12725,-21.73213 14.36232,-7.6202 21.41305,-8.997252 45.08345,-8.805071 11.73334,0.09527 25.80968,1.001352 31.28078,2.013531 8.71866,1.612997 10.06104,2.248127 10.86709,5.141672 0.50581,1.815741 0.97947,12.758439 1.05256,24.317108 l 0.13291,21.01575 L 749,131.01576 C 745.88333,130.45709 736.40531,130 727.93772,130 c -12.4946,0 -16.07479,0.44546 -19,2.36407 -8.16537,5.35557 -3.19993,11.08052 14.10663,16.26436 30.90794,9.25786 40.79224,19.97824 42.01313,45.56688 0.4338,9.09208 0.0149,13.90233 -1.64632,18.90373 -6.61383,19.91235 -25.29661,31.15145 -58.13929,34.97517 -19.76826,2.30152 -55.8523,-0.17276 -60.69934,-4.16213 -0.83494,-0.68721 -12.14589,-0.0827 -27.24996,1.45652 C 603.1202,246.81587 590.50903,248 589.29775,248 c -1.99359,0 -2.2891,-4.86685 -3.11759,-51.34569 -0.57175,-32.07483 -1.45803,-52.53694 -2.36141,-54.51964 -1.64,-3.59942 -6.32746,-6.13467 -11.34243,-6.13467 -4.87449,0 -11.11537,4.09239 -12.07565,7.91848 -0.4526,1.80327 -0.4244,25.05932 0.0627,51.68009 C 560.9504,222.21936 560.86936,244 560.28324,244 c -0.58611,0 -12.71357,1.2 -26.94991,2.66667 -14.23633,1.46666 -27.1861,2.66666 -28.77726,2.66666 h -2.89302 z m 105.80749,45.08766 c 2.16779,-4.05056 1.65284,-6.75432 -1.28643,-6.75432 -2.15873,0 -2.66666,-0.8889 -2.66666,-4.66667 0,-3.25925 0.60317,-4.66667 2,-4.66667 1.33333,0 2,-1.33333 2,-4 0,-2.66666 -0.66667,-4 -2,-4 -1.33334,0 -2,-1.33333 -2,-4 0,-4.42873 -0.592,-4.68701 -5.0595,-2.20733 -4.85221,2.69321 -9.52096,14.20733 -5.7608,14.20733 0.64883,0 1.59247,3.30371 2.09696,7.34156 0.76355,6.11115 1.51554,7.66643 4.48698,9.27995 4.83109,2.62335 6.56008,2.51064 8.18945,-0.53385 z m 52.3432,-0.67844 c 2.35321,-1.64827 2.35252,-1.80251 -0.0212,-4.73399 -2.06272,-2.54736 -2.90356,-2.78947 -5.27672,-1.51939 -1.55265,0.83096 -3.46245,1.51083 -4.244,1.51083 -3.13116,0 -1.07889,-2.6082 5.24568,-6.66667 3.66667,-2.35289 6.66667,-5.12425 6.66667,-6.15858 0,-2.42376 -7.75596,-7.1633 -11.73288,-7.16976 -4.14182,-0.007 -10.54442,3.44277 -12.2276,6.58782 -3.57838,6.68627 0.15488,17.21195 7.14464,20.14382 3.38974,1.42182 11.08521,0.35953 14.44546,-1.99408 z M 645.33333,218 c 0.91292,-1.1 2.60107,-2 3.75143,-2 1.6744,0 1.57535,0.39047 -0.49659,1.9576 -3.38612,2.56113 -5.36661,2.58693 -3.25484,0.0424 z m 34.83334,16.66667 H 684 v -10.08766 c 0,-12.13286 -1.25071,-14.85921 -7.34077,-16.0017 -7.41048,-1.39023 -11.3259,0.15969 -11.3259,4.48333 0,3.48512 0.27762,3.65003 5.33334,3.16788 2.93333,-0.27973 5.33333,0.0505 5.33333,0.73384 0,0.68336 -1.7644,0.98351 -3.92088,0.667 -5.53549,-0.81244 -11.36031,4.98624 -10.14997,10.1044 1.25434,5.30424 5.8199,8.64976 10.52102,7.70953 2.13575,-0.42714 5.60816,-0.77662 7.7165,-0.77662 z m -9.5,-8.66667 c 0,-1.11111 1.18518,-2 2.66666,-2 1.48148,0 2.66667,0.88889 2.66667,2 0,1.11111 -1.18519,2 -2.66667,2 -1.48148,0 -2.66666,-0.88889 -2.66666,-2 z m 32.033,6.57987 c 1.86744,-4.91174 1.63604,-5.9132 -1.36634,-5.9132 -2.14272,0 -2.66666,-0.8889 -2.66666,-4.52402 0,-2.79136 0.76598,-4.81794 2,-5.29149 1.1,-0.42211 2,-2.28629 2,-4.14265 0,-2.11127 -0.74895,-3.37518 -2,-3.37518 -1.33334,0 -2,-1.33333 -2,-4 0,-2.2 -0.21047,-4 -0.46771,-4 -3.22959,0 -8.86563,3.40278 -8.86563,5.35266 0,1.33381 -0.52069,2.62512 -1.15709,2.86957 -0.63639,0.24444 -1.57776,1.7974 -2.09193,3.45101 -0.66024,2.12342 -0.32036,3.24236 1.15709,3.80931 1.41288,0.54219 2.09193,2.51613 2.09193,6.08109 0,6.39034 1.8597,10.1914 5.75383,11.76039 4.77396,1.92347 6.24385,1.52232 7.61251,-2.07749 z m 38.00982,1.48817 c 5.05883,-2.11372 5.47826,-3.05656 2.91755,-6.55853 -1.40663,-1.92368 -2.35856,-2.08552 -5.42013,-0.92151 -8.89566,3.38212 -8.2719,0.60348 1.12642,-5.01791 4.03334,-2.41244 7.33334,-4.84802 7.33334,-5.41242 0,-2.52095 -6.87155,-7.10556 -11.60075,-7.73988 -14.72489,-1.97503 -20.33904,19.67529 -6.64631,25.63066 5.43182,2.36246 6.67784,2.36444 12.28988,0.0196 z m -11.37616,-15.39631 c 0,-1.61641 3.73935,-3.37682 4.83836,-2.27781 0.39786,0.39785 -0.52802,1.39308 -2.05749,2.21163 -1.92825,1.03197 -2.78087,1.05226 -2.78087,0.0661 z m -110.39425,6.99494 c 0.34956,-7.9797 0.69656,-9 3.06092,-9 2.36436,0 2.71136,1.0203 3.06092,9 0.39387,8.99121 0.39809,9 4.33333,9 h 3.93908 V 224 c 0,-9.07836 -0.41942,-11.08609 -2.81676,-13.48343 -2.1611,-2.1611 -3.8681,-2.64616 -7.33333,-2.08382 -4.39933,0.7139 -4.51657,0.61397 -4.51657,-3.84991 0,-4.20316 -0.3314,-4.58284 -4,-4.58284 h -4 v 17.33333 17.33334 h 3.93908 c 3.93524,0 3.93946,-0.009 4.33333,-9 z M 714.66667,226 c 0,-6.87735 0.41973,-8.66667 2.033,-8.66667 1.82792,0 4.63366,-4.89666 4.63366,-8.0868 0,-1.74832 -4.98172,-1.56081 -6.08797,0.22915 -0.60196,0.97399 -1.19649,1.01541 -1.74876,0.12187 -0.4602,-0.74463 -2.4852,-1.03874 -4.5,-0.65358 l -3.66327,0.70027 v 12.51124 12.51123 H 710 h 4.66667 v -8.66667 z m -20.41462,-31.5648 c 4.4246,-2.11108 5.65347,-7.67255 2.41164,-10.91437 -1.18126,-1.18127 -7.36384,-3.73124 -13.73906,-5.66662 -16.15084,-4.90304 -23.9064,-9.07625 -31.25796,-16.8197 l -6.33334,-6.67095 v 19.45948 19.45949 l 3.34179,0.83874 c 13.63159,3.4213 38.70224,3.59398 45.57693,0.31393 z M 7.3656659,146.90175 C 6.0978684,137.68376 8.9463401,114.69867 12.916085,102.1139 26.196493,60.012753 57.74808,29.052839 99.615331,17.040484 c 8.597569,-2.466775 13.749979,-2.984765 29.940229,-3.010003 10.75555,-0.01676 19.95164,0.365608 20.43575,0.849719 0.48412,0.484109 -5.20076,12.784109 -12.63306,27.333333 C 129.92595,56.762756 124.15524,67.466667 124.53444,66 c 2.4884,-9.624613 4.95915,-22.284184 4.44878,-22.794556 -0.33363,-0.333632 -2.94134,5.858657 -5.79491,13.760643 L 118,71.333333 117.28817,60.399284 c -0.3915,-6.013728 -1.04414,-11.266368 -1.45031,-11.672535 -0.40617,-0.406166 -1.52891,5.414155 -2.49499,12.93405 l -1.7565,13.672534 -7.26541,-21.75 c -3.99597,-11.9625 -7.561776,-21.453628 -7.924009,-21.091394 -0.5483,0.548298 6.168119,35.380912 8.517769,44.174728 0.52371,1.960066 -0.82795,1.233872 -5.101104,-2.740618 -10.577979,-9.838649 -11.412329,-9.999612 -6.528001,-1.259382 2.458864,4.4 5.07612,8.782717 5.816124,9.739372 0.766112,0.990406 -2.626178,0.211913 -7.878139,-1.807947 -17.030265,-6.549697 -17.378656,-6.316125 -4.355005,2.919733 8.178754,5.800051 8.307073,5.978918 3.798072,5.294202 C 88.1,88.422265 80.6,87.758955 74,87.338003 67.4,86.917052 58.7,86.262648 54.666667,85.883772 c -12.606466,-1.184204 -4.499096,1.499599 14.666666,4.855143 19.689658,3.447268 19.690244,3.441066 -0.666666,7.040861 L 58,99.666007 l 13.333333,0.253592 13.333334,0.253591 -13.380783,4.32772 c -16.565745,5.35782 -18.475781,6.08697 -17.776572,6.78618 0.306711,0.30671 5.642587,-0.59201 11.857505,-1.99715 6.214918,-1.40515 12.19985,-2.53649 13.29985,-2.51409 1.1,0.0224 -4.75,3.26517 -13,7.20617 -21.611388,10.32368 -19.882475,10.56264 5.51825,0.7627 7.932208,-3.06035 4.527542,-0.12958 -8.779701,7.55767 -7.556203,4.36502 -22.530083,13.13266 -33.275289,19.48366 -10.745208,6.351 -19.8389055,11.54728 -20.2082171,11.54728 -0.3693115,0 -1.0695314,-2.89421 -1.556044,-6.43158 z"
         id="path361" />
    </g>
  </g>
</svg>
